<svg xmlns="http://www.w3.org/2000/svg" xmlns:xlink="http://www.w3.org/1999/xlink" viewBox="0 0 300 300"><defs><style>.cls-1,.cls-9{fill:none;}.cls-2{isolation:isolate;}.cls-3{fill:#00a6e0;}.cls-21,.cls-4{fill:#99dbf3;}.cls-5{clip-path:url(#clip-path);}.cls-15,.cls-22,.cls-6{fill:#25282b;}.cls-10,.cls-11,.cls-12,.cls-13,.cls-14,.cls-15,.cls-16,.cls-17,.cls-18,.cls-19,.cls-20,.cls-21,.cls-22,.cls-23,.cls-6{fill-rule:evenodd;}.cls-6{opacity:0.96;mix-blend-mode:overlay;}.cls-7{clip-path:url(#clip-path-2);}.cls-16,.cls-8{fill:#4a4f55;}.cls-9{stroke:#25282b;stroke-miterlimit:10;stroke-width:0.46px;}.cls-10{fill:#f7be00;}.cls-11{fill:#f5a200;}.cls-12{fill:#b77500;}.cls-13{fill:#e6e6e6;}.cls-14{fill:#66caec;}.cls-17{fill:#abb7af;}.cls-18{fill:#ffbd1b;}.cls-19{fill:#005370;}.cls-20{fill:#18313d;}.cls-22{opacity:0.07;}.cls-23{fill:#f3f3f3;}</style><clipPath id="clip-path"><circle class="cls-1" cx="150" cy="149.81" r="150"/></clipPath><clipPath id="clip-path-2"><circle class="cls-1" cx="150.58" cy="148.64" r="150.48"/></clipPath></defs><title>ba_u2_s4_p1_slide_2</title><g class="cls-2"><g id="Layer_28" data-name="Layer 28"><rect class="cls-3" x="0.1" y="-0.19" width="300" height="300"/><circle class="cls-4" cx="150.1" cy="149.81" r="150"/><g class="cls-5"><polygon class="cls-6" points="200.46 232.69 263.79 296.02 227.68 332.13 62.18 332.13 -36.25 233.69 200.46 232.69"/></g><g class="cls-7"><circle class="cls-8" cx="232.69" cy="159.84" r="6.38"/><circle class="cls-8" cx="233.9" cy="143.69" r="9.77"/><circle class="cls-8" cx="241.23" cy="154.42" r="7.33"/><circle class="cls-8" cx="245.81" cy="126.51" r="4.58"/><circle class="cls-8" cx="249.43" cy="137.98" r="6.88"/><circle class="cls-8" cx="247.71" cy="110.85" r="7.41"/><circle class="cls-8" cx="233.44" cy="99.42" r="5.64"/><circle class="cls-8" cx="252.63" cy="95.19" r="11.41"/><circle class="cls-8" cx="255.58" cy="122.54" r="2.94"/><circle class="cls-8" cx="234.18" cy="75.94" r="1.48"/><circle class="cls-8" cx="241.37" cy="83.9" r="3.61"/><circle class="cls-8" cx="270.6" cy="98.26" r="1.15"/><circle class="cls-8" cx="261.46" cy="68.63" r="1.18"/><circle class="cls-8" cx="239.13" cy="117.03" r="2.24"/><circle class="cls-8" cx="260.29" cy="131.83" r="9.28"/><line class="cls-9" x1="216.8" y1="132.69" x2="218.7" y2="159.03"/><path class="cls-10" d="M204.25,145.62,228,119.68A16.6,16.6,0,0,1,240.29,117l-1.81,2.12c-.56.46-5.3-2.53-10.7,4l-24.55,26.18Z"/><path class="cls-11" d="M204.64,146.86l23.77-25.94a12.49,12.49,0,0,1,11.34-3.47l-1.27,1.7c-.56.46-4.91-1.29-10.32,5.28l-24.54,26.18Z"/><path class="cls-12" d="M150,195.64a35.86,35.86,0,0,1,19.18-10.41H182.8a36,36,0,0,1,29.15,33h-71.9a36,36,0,0,1,10-22.6Z"/><path class="cls-10" d="M-51.43,218.78c-.4-14.84-10.7-24.37-19.23-29.69-10.71-6.68-29.26-5.28-39.58,6.13H-155.3l-.36-.27c-2.89-38.85,1.07-84.32,8.29-114.71,1.14-6.53,3.32-11.1,14.31-11.1H97.08c14.48,0,23.23,6,30.2,12.68l70.61,63.05a2.92,2.92,0,0,0,1.79.6h2.9a3.39,3.39,0,0,1,2.32.62l27,18c4.72,2.94,7.75,5.94,7.75,11.86v19.3H199.2c-12-13.83-34.83-12-47.86-.07-.54.5-1.07,1-1.59,1.55A34.14,34.14,0,0,0,140.23,219c0,1.78-.54,2.89-2.91,2.89H-47.34c-3.41,0-4-1.2-4.09-3.07Z"/><path class="cls-13" d="M-156.28,152.25c.19-6.07.53-12.11,1-18,0-.51.08-1,.13-1.33.42-5.59,1-11.06,1.61-16.22.4-3.78.88-7.41,1.4-10.9,0-.15,0-.29,0-.33,0-.25.08-.5.1-.66.37-2.54.77-5,1.18-7.35.16-1,.34-2,.42-2.38.34-2,.7-3.92,1-5.53.17-1,.36-1.87.44-2.22.49-2.45,1-4.8,1.56-7.07,1.14-6.53,3.32-11.1,14.31-11.1H96.57c1.53,0,3.08.06,4.69.17,12,1,19.74,6.54,26,12.51l23.06,20.6-45.77,51.75H-156.38c0-.64,0-1.28.1-1.92Z"/><path class="cls-14" d="M134.39,161.94l-4.7-5.18a6.9,6.9,0,0,0-5.89-2.6H98.7a3.07,3.07,0,0,1-3.06-3.06V103a3.06,3.06,0,0,1,3.06-3.06h48.87l50.32,44.93a2.89,2.89,0,0,0,1.36.57H185.86c-5.43-.67-5.46,1.47-1.75,3.77L193,159.34c1.91,1.93,1.45,4.56-1.31,4.56H139.09a5.56,5.56,0,0,1-4.7-2Z"/><path class="cls-15" d="M155.82,241.49a29.16,29.16,0,1,1,41.22-.81,29.2,29.2,0,0,1-41.22.81Z"/><path class="cls-16" d="M164.79,232.16a16.22,16.22,0,1,1,22.92-.45,16.23,16.23,0,0,1-22.92.45Z"/><path class="cls-17" d="M170.53,226.18a7.93,7.93,0,1,1,11.21-.22,7.93,7.93,0,0,1-11.21.22Z"/><path class="cls-17" d="M174.7,231.84a1.85,1.85,0,1,1,.05,2.61,1.85,1.85,0,0,1-.05-2.61Zm8.22-2.31a1.85,1.85,0,1,1,1.89,1.82,1.85,1.85,0,0,1-1.89-1.82Zm-17.48,0a1.85,1.85,0,1,1,1.89,1.81,1.84,1.84,0,0,1-1.89-1.81Zm-3.11-10.07a1.85,1.85,0,1,1,0,2.62,1.86,1.86,0,0,1,0-2.62Zm24.73,0a1.85,1.85,0,1,1,.05,2.62,1.85,1.85,0,0,1-.05-2.62ZM165.44,212a1.85,1.85,0,1,1,1.89,1.81,1.85,1.85,0,0,1-1.89-1.81Zm17.48,0a1.85,1.85,0,1,1,1.89,1.81,1.85,1.85,0,0,1-1.89-1.81Zm-8.22-4.94a1.85,1.85,0,1,1,.05,2.61,1.84,1.84,0,0,1-.05-2.61Z"/><path class="cls-18" d="M-60.28,199H142.15a40.08,40.08,0,0,0-4.1,8.6H-55.23a33.94,33.94,0,0,0-5.05-8.6Z"/><path class="cls-11" d="M57.07,170.07v-9.53a1.88,1.88,0,0,1,1.87-1.88H73.23a1.88,1.88,0,0,1,1.88,1.88v9.53A1.88,1.88,0,0,1,73.23,172H58.94a1.88,1.88,0,0,1-1.87-1.88Z"/><path class="cls-11" d="M95.88,170.07v-9.53a1.88,1.88,0,0,1,1.87-1.88h5.49a1.88,1.88,0,0,1,1.87,1.88v9.53a1.87,1.87,0,0,1-1.87,1.87H97.75a1.87,1.87,0,0,1-1.87-1.87Z"/><path class="cls-14" d="M-138.26,148.78c.31-14.23.79-28.53,2.95-43.46a2.63,2.63,0,0,1,2.45-2.77H68.31a2.63,2.63,0,0,1,2.45,2.77v43.46a2.63,2.63,0,0,1-2.45,2.77H-135.82a2.62,2.62,0,0,1-2.44-2.77Z"/><path class="cls-11" d="M146.29,191.85a41.26,41.26,0,0,1,58.33-1.14,42,42,0,0,1,4.06,4.51H199.2a29.83,29.83,0,0,0-4-3.1,6.48,6.48,0,0,0-1.72-1.11,26.71,26.71,0,0,0-4.21-2.11,7.19,7.19,0,0,0-2.09-.8,26.59,26.59,0,0,0-4.34-1.19,7.1,7.1,0,0,0-2.15-.36,29.67,29.67,0,0,0-4.7-.36,6.71,6.71,0,0,0-1.84.08,29.11,29.11,0,0,0-4.58.53,6.64,6.64,0,0,0-1.84.43,28,28,0,0,0-4.41,1.4,5.88,5.88,0,0,0-1.74.76,27.32,27.32,0,0,0-4.16,2.29,6,6,0,0,0-1.56,1.06,30.79,30.79,0,0,0-3,2.41c-.35.32-.68.64-1,1a2.48,2.48,0,0,0-.63.54,4,4,0,0,0-.64.81,30.16,30.16,0,0,0-3.25,4.14,5.72,5.72,0,0,0-.89,1.5,27.51,27.51,0,0,0-2.18,4.34,6,6,0,0,0-.63,1.7,29.42,29.42,0,0,0-1.23,4.48,6.33,6.33,0,0,0-.32,1.82,29.42,29.42,0,0,0-.35,3.5c0,1.78-.54,2.89-2.9,2.89h-4.1a41.18,41.18,0,0,1,11.49-30Z"/><path class="cls-16" d="M-159.64,214.4V200.85c0-3.09,1-5.72,4.74-5.72h44.82c-.55.51-1.09,1-1.61,1.57A34.13,34.13,0,0,0-121.22,219a2.48,2.48,0,0,1-2.74,2.81h-30c-5.25,0-5.71-4.17-5.71-7.45Zm369.87,4.29a34.17,34.17,0,0,0-10.46-22.94c-.22-.21-.44-.42-.67-.62H240c3.84,0,4.26,1.5,4.26,4.67v7a5.92,5.92,0,0,1-.72,2.91l-5.18,9c-1.07,1.69-1.91,3.12-4.46,3.12H214.26c-2.56,0-4-.93-4-3.16Z"/><path class="cls-17" d="M-159.64,207.6v-6.75a10,10,0,0,1,.15-1.85h45.78a34.11,34.11,0,0,0-5.05,8.6ZM202.74,199h41.51c0,.26,0,.52,0,.8v7c0,.27,0,.54,0,.8H207.79a34.23,34.23,0,0,0-5-8.6Z"/><path class="cls-19" d="M134.39,161.94l-4.7-5.18a6.9,6.9,0,0,0-5.89-2.6H98.7a3.07,3.07,0,0,1-3.06-3.06V103a3.06,3.06,0,0,1,3.06-3.06h48.87l4.58,4.09H138.87c-1.1,0-1.59.72,0,2.33l.07.08,37.42,33.4a9.73,9.73,0,0,0,5.62,2.3h12.82l3,2.73a2.89,2.89,0,0,0,1.36.57H184.36c-1.55,0-2.87,0-1.22,1.65l12.4,12.25c1.9,1.93,1.44,4.56-1.32,4.56H139.09a5.56,5.56,0,0,1-4.7-2Zm51.43-6.16-10.17-10.14a2.09,2.09,0,0,1-.2-.22h0l-43.76-39.06c-2.19-1.67-3.49-2.3-5.85-2.3H123.5c-1.55.05-2.14.77-2.14,2.63v40.69a2.38,2.38,0,0,0,2.54,2.73h2.62a6.34,6.34,0,0,1,5.4,2.38l4.3,4.74a5.07,5.07,0,0,0,4.3,1.79h44.25c2.52,0,2.8-1.48,1-3.25Zm-70-8.43v-40.6c0-1.83-.68-2.72-2.21-2.72H102.83a2.81,2.81,0,0,0-2.8,2.8v40.49a2.81,2.81,0,0,0,2.8,2.8h10.42a2.52,2.52,0,0,0,2.56-2.77Z"/><path class="cls-20" d="M97.56,169.41V161.2a.6.6,0,0,1,.6-.61h2.15a.61.61,0,0,1,.6.61v8.21a.6.6,0,0,1-.6.6H98.16a.6.6,0,0,1-.6-.6Z"/><path class="cls-20" d="M69.67,169.41V161.2a.6.6,0,0,1,.6-.61h2.15a.61.61,0,0,1,.61.61v8.21a.6.6,0,0,1-.61.6H70.27a.6.6,0,0,1-.6-.6Z"/><path class="cls-19" d="M-143.41,151.1c.39-15.75,1-31.58,3.7-48.1a3.06,3.06,0,0,1,3.06-3.06H72A3.06,3.06,0,0,1,75.09,103v48.1A3.07,3.07,0,0,1,72,154.16H-140.35a3.07,3.07,0,0,1-3.06-3.06Zm56.68-3.76V106.75c0-1.62-.57-2.64-1.79-2.64H-132a2.51,2.51,0,0,0-2.42,2.59c-2.15,14-2.63,27.38-2.93,40.7a2.51,2.51,0,0,0,2.42,2.59h46.39a2.47,2.47,0,0,0,1.83-2.65Zm65.77,0V106.76c0-1.64-.41-2.65-1.8-2.65H-79.54c-1.55,0-1.64,1-1.64,2.59v40.69c0,1.62.7,2.34,1.71,2.6h56.7A2.45,2.45,0,0,0-21,147.35Zm69.1,0v-40.6c0-1.62-.41-2.64-2-2.64H-13.74c-1.44,0-1.66.93-1.66,2.59v40.69c0,1.61.69,2.33,1.69,2.6h60a2.46,2.46,0,0,0,1.82-2.64Zm21.73.05V106.7a2.52,2.52,0,0,0-2.43-2.59H55.56c-1.5,0-1.87.94-1.87,2.59v40.69c0,1.61.69,2.33,1.69,2.6H67.44a2.52,2.52,0,0,0,2.43-2.59Z"/><path class="cls-21" d="M-136.92,133.36l42.14-29.25h3.4L-137,135.78c0-.8.07-1.61.11-2.42Zm55.74-.13v-2.35l38.57-26.77h3.4l-42,29.12Zm65.78,0v-2.35l38.58-26.77h3.39l-42,29.12Zm136.76-2.7v-2.36l19.54-13.56,1.48,1.33-21,14.59Zm-257.12-13.44c.35-3.44.78-6.89,1.32-10.39a2.61,2.61,0,0,1,1.48-2.39,2.26,2.26,0,0,1,.94-.2h29.66l-34.27,23.78c.21-3.57.49-7.17.87-10.8Zm54.58,8.52V106.7c0-1.64,0-2.59,1.64-2.59h29.35l-31,21.5Zm65.78,0V106.7c0-1.64.21-2.59,1.65-2.59H15.59l-31,21.5Zm69.09-2.56v-2.36l16.18-11.22v2.36L53.69,123.05Zm67.67-.14V106.7c0-1.64.47-2.39,1.65-2.59h3.86c1.74.18,2.95.85,4.79,2.25l5.92,5.3-16.22,11.25Zm-21.33,0v-2.35l15.78-11v2.35l-15.78,11Zm-46.34-7.42V106.7c0-1.64.36-2.58,1.85-2.59H67.45a2.37,2.37,0,0,1,1.61.66L53.69,115.44Zm46.34-.19v-8.42a2.81,2.81,0,0,1,2.8-2.8H113.6a2.23,2.23,0,0,1,1.22.3s.13,0,.2.13a1.26,1.26,0,0,1,.24.22L100,115.25Z"/><path class="cls-22" d="M-19.09,221.85V176.7H-156.52c0-.74,0-1.48,0-2.22H-19.09V87.25H-148.93c.16-.75.31-1.49.47-2.22H130.87l2.49,2.22H86.58v87.23H218.7v2.22H86.58v45.15H84.36V176.7H-16.87v45.15ZM84.36,174.48V87.25H-16.87v87.23Z"/><path class="cls-23" d="M220.83,188.18l-5.86-10c-1-1.6-.7-3.68,1.42-3.68h23.26v17.4h-12.9c-2.51,0-4.27-1-5.92-3.68Z"/></g></g></g></svg>