<?xml version="1.0" encoding="utf-8"?>
<!-- Generator: Adobe Illustrator 27.0.1, SVG Export Plug-In . SVG Version: 6.00 Build 0)  -->
<svg version="1.1" id="_x31__x5F_2_x5F_130_x5F_1" xmlns="http://www.w3.org/2000/svg" xmlns:xlink="http://www.w3.org/1999/xlink"
	 x="0px" y="0px" viewBox="0 0 300 300" style="enable-background:new 0 0 300 300;" xml:space="preserve">
<style type="text/css">
	.st0{fill:#99DBF3;}
	.st1{clip-path:url(#SVGID_00000011752385483579549570000006928803949754500738_);}
	.st2{opacity:0.25;}
	.st3{fill:#FFFFFF;}
	.st4{opacity:0.58;}
	.st5{fill:#181A1C;}
	.st6{fill:#A57B51;}
	.st7{fill:#C99761;}
	.st8{fill:#DB536A;}
	.st9{fill:#2D2D2D;}
	.st10{fill:#25282B;}
	.st11{fill:#E48096;}
	.st12{fill:#606060;}
	.st13{opacity:0.41;fill:#F3F3F3;}
</style>
<g id="lts_x5F_u2_x5F_s1_x5F_p2_x5F_slide1">
	<g id="circle_00000088116812259576371470000003070902784870770827_">
		<ellipse class="st0" cx="150" cy="150" rx="150" ry="150"/>
	</g>
</g>
<g>
	<g>
		<defs>
			<circle id="SVGID_1_" cx="150" cy="150" r="150"/>
		</defs>
		<clipPath id="SVGID_00000002367842764034776430000015944124069022574005_">
			<use xlink:href="#SVGID_1_"  style="overflow:visible;"/>
		</clipPath>
		<g style="clip-path:url(#SVGID_00000002367842764034776430000015944124069022574005_);">
			<g class="st2">
				<path class="st3" d="M28.8,167.2c0-6,1.6-10.5,4.7-13.6c3.1-3.1,7.6-4.6,13.4-4.6c5.7,0,10.1,1.6,13.1,4.8
					c3.1,3.2,4.6,7.7,4.6,13.4s-1.5,10.2-4.6,13.6c-3.1,3.3-7.5,5-13.1,5c-5.7,0-10.2-1.6-13.3-4.8S28.8,173.1,28.8,167.2z
					 M57.6,128.7h-21L30.3,5.9h33.4L57.6,128.7z"/>
			</g>
			<g class="st4">
				<path class="st3" d="M159.8,184.5c0-7,1.8-12.3,5.5-16c3.7-3.6,8.9-5.5,15.8-5.5c6.7,0,11.9,1.9,15.5,5.7
					c3.6,3.8,5.4,9,5.4,15.8s-1.8,12-5.5,16s-8.8,5.9-15.4,5.9c-6.7,0-11.9-1.9-15.7-5.7S159.8,191.5,159.8,184.5z M193.6,139.2
					h-24.7L161.5-5.3h39.3L193.6,139.2z"/>
			</g>
			<g class="st2">
				<path class="st3" d="M237.3,105c0-3,0.8-5.3,2.4-6.9c1.6-1.6,3.8-2.3,6.8-2.3c2.9,0,5.1,0.8,6.6,2.4c1.5,1.6,2.3,3.9,2.3,6.8
					s-0.8,5.2-2.3,6.9s-3.8,2.5-6.6,2.5c-2.9,0-5.1-0.8-6.7-2.4C238.1,110.3,237.3,108,237.3,105z M251.8,85.6h-10.6l-3.2-62h16.9
					L251.8,85.6z"/>
			</g>
			<g>
				<g>
					<path class="st5" d="M218.8,161.1c-0.2-0.4-0.4-0.8-0.6-1.3c6.5-0.7,12.5-6.8,12.5-6.8c-7.7,0.7-13.5-7.5-16.4-12.6
						c-0.1-1-0.1-2-0.2-3c-0.8-13.6,14.5-62-19.5-84.1c-14.6-9.5-34.1-3.8-41.8,11.8c-13.4,27.1-5.1,60.3,11.7,85.3
						c3.5,5.1,7.3,10.1,11.9,14.3c16.3,15,42,18.7,61.9,8.9C230,174.3,222.4,168.4,218.8,161.1z"/>
					<polygon class="st6" points="175.3,211.6 166.6,208 166.6,185.7 131.6,185.7 131.6,208 122.8,211.6 131.6,265.1 166.6,265.1 
											"/>
					<polygon class="st6" points="131.6,185.9 131.6,197.5 148.9,202.7 166.6,199.2 166.6,185.9 					"/>
					<path class="st7" d="M189.1,124.7v-18.2c0-19.3-22.4-43.7-40.1-43.7c-17.7,0-40.1,24.4-40.1,43.7v18.2c-4.9,0-8.9,3.9-8.9,8.7
						v9.1c0,4.8,4,8.7,8.9,8.7c0,19.3,22.4,44.4,40.1,44.4c17.7,0,40.1-25.1,40.1-44.4c4.9,0,8.9-3.9,8.9-8.7v-9.1
						C198,128.6,194,124.7,189.1,124.7z"/>
					<g>
						<path class="st8" d="M198,150.8c0,2.4-2,4.4-4.4,4.4c-2.4,0-4.4-2-4.4-4.4c0-2.4,2-4.4,4.4-4.4
							C196.1,146.4,198,148.4,198,150.8z"/>
						<circle class="st8" cx="104.5" cy="150.8" r="4.4"/>
					</g>
					<g>
						<ellipse class="st9" cx="129.2" cy="135.8" rx="3.1" ry="7.2"/>
						<ellipse class="st9" cx="169" cy="135.7" rx="3.1" ry="7.2"/>
					</g>
					<path class="st6" d="M148.8,138.2l-4.9,22c0,0,10,2.2,9.7-1.1S148.8,138.2,148.8,138.2z"/>
					<path class="st9" d="M134.2,170.7h29.5C163.7,170.7,151.4,173,134.2,170.7z"/>
					<path class="st10" d="M126.1,113.1c-1.2,4.1-3.4,9.6-7.3,12.8c11.5-2.9,21.3-9.8,28.4-17.8c-0.7,4.2-3.3,8.7-7.4,12.7
						c3.1-1.4,6.1-3.1,9-5.2c6.4-4.5,12.1-10.3,16.4-16.3c6.7,13.6,19.2,30.6,27.6,30.8c13.1-24.1,3.5-75.1-43.9-75.1
						s-57.3,49.3-45.4,76.5C112.9,129.6,123.4,117.1,126.1,113.1z"/>
					<g>
						<path class="st11" d="M224.1,300.4l-1.1-39.1c-1.8-14.1-5.1-30-16.8-41.3c-11.8-11.3-25.5-10.9-37.9-11.9c0,0,0,0.2-0.1,0.5
							l-19.2,42l-19.2-42c0-0.3-0.1-0.5-0.1-0.5c-12.4,0.9-26.1,0.5-37.9,11.9c-11.8,11.3-15,27.2-16.8,41.3l-1.1,39.1H224.1z"/>
						<g>
							<path class="st3" d="M118,224.3l8.8,3.3c1.1,0.4,1.5,1.8,0.8,2.7l-2.6,3.7c-1.6,2.2-0.8,5.4,1.7,6.6l22.2,10.2l-19.2-42.6
								l-12.6,9C114.5,219,115,223.1,118,224.3z"/>
							<path class="st3" d="M180.7,217.2l-12.6-8.8L149,250.7l22.2-10.2c2.5-1.2,3.4-4.3,1.7-6.6l-2.6-3.7c-0.7-1-0.3-2.3,0.8-2.7
								l8.7-3.3C182.9,223.1,183.4,219,180.7,217.2z"/>
						</g>
					</g>
				</g>
			</g>
			<polygon class="st6" points="130.6,188.3 144,176.2 156.1,173.2 173.5,183.1 171.6,184.9 132.6,189.7 			"/>
			<path class="st7" d="M140.8,182.3l-10.5,9.5c-1.2,1.1-1.8,2.7-1.6,4.3l1.7,11.9c0.1,0.8,0.4,1.6,1,2.3l4.4,5.7c0.7,0.9,1,2,1,3.1
				l-0.1,4.4c-0.1,2.2,1.4,4.2,3.5,4.8l10.2,3.1c1.8,0.6,3.8,0,5.1-1.4l15.4-17.4c0.8-0.9,1.2-2,1.2-3.2V187c0-1.9-1.1-3.6-2.8-4.4
				l-12.5-5.9c-1.3-0.6-2.8-0.6-4.1,0l-10.6,4.8C141.6,181.7,141.2,182,140.8,182.3z"/>
			<rect x="142.4" y="170.7" class="st12" width="12.4" height="13.2"/>
			<rect x="141.4" y="180.4" class="st12" width="14.7" height="11.9"/>
			<path class="st6" d="M141.3,192.5l-2.1,5.9c0,0.1,0,0.2,0,0.2l4.6,7.3c0.1,0.1,0.2,0.2,0.3,0.1l16-10.2c0.1-0.1,0.1-0.2,0.1-0.3
				l-3.7-13.3c-0.1-0.3-0.5-0.2-0.5,0.1v9.8c0,0.1-0.1,0.3-0.3,0.3h-14.3C141.5,192.3,141.4,192.4,141.3,192.5z"/>
			<polygon class="st8" points="127.5,218.4 163.7,228.3 139.2,301.9 61.1,306.7 78.6,242.8 100.1,287.5 100.1,287.5 			"/>
			<rect x="150.9" y="170.7" class="st13" width="2.3" height="21.6"/>
			<rect x="141.5" y="180.6" class="st13" width="14.4" height="5.5"/>
			<rect x="143.7" y="179.3" class="st5" width="9.7" height="3.8"/>
			<path class="st11" d="M91.9,220c0,0-24.1,20-42.9,86.7h12.1l39-19.2L91.9,220z"/>
		</g>
	</g>
</g>
</svg>
