<svg xmlns="http://www.w3.org/2000/svg" viewBox="0 0 300 300"><defs><style>.b{fill:#f4d3b6}.c{fill:#f3f3f3}.d{fill:#25282b}.g{fill:#007da8}.h{fill:#abb7af}.i{fill:#89938c}.j{fill:#69706b}.m{fill:#d3905e}</style></defs><path fill="#33b8e6" d="M0 0h300v300H0z"/><path class="b" d="M126.94 216.66l22.53 39.63 18.96-.37-23.18-49.79-18.31 10.53z"/><path class="c" d="M147.87 204.3s-12.36-19.34-17.4-30.67c-2.79-6.28-8.11-10.16-12.29-12.37a14.51 14.51 0 0 0-5.73-2.4l-.29-.09-.64-.1c-1.52-.2-13-1.92-20-3.2-2.64-.49 1.4 18.22-24.7 18.22-24.41 0-17.14-17.52-18.95-17.15-7.49 1.5-13.94 1.6-15.56 2.19-16.65 6-20.82 17.06-23.05 23.29-2.71 7.62-9.64 21.58-9.64 21.58l26.05 15.29v39.64h92.44v-53l6.41 13z"/><path class="b" d="M75.73 160.87c3.32-.33 10.54-6.05 9.4-6.74-3.45-2.07-2.61-11.08-2.11-14.77a46.71 46.71 0 0 0 15.82-22.66v.43s-.53.3 1.59.26c5-.09 4-8 4-11.14 0-1.91-2-2.72-3.55-3.06C100.61 80.91 91.76 63 69.23 63S37.87 80.83 37.6 103c-1.38.36-4.75 1.34-4.75 3.33 0 3.18 1 11.21 3.17 11.21a21.64 21.64 0 0 0 3.74-.43 46.47 46.47 0 0 0 16.43 22.76c.5 4 1.1 12.25-2.18 14.22s12.33 7.7 21.72 6.78z"/><path class="d" d="M43.18 64.75c8.75-6.64 16-7.58 28.2-7.58C103 57.17 109 94 104.15 104c0 0 .73.47-4 .72l-2-8.27c-5.67 1.57-24.8 5.45-46.52-5.53a47.22 47.22 0 0 1-8.39-4.68c-1.9 4-3.5 9.75-3.66 17.76a8.82 8.82 0 0 0-6.6 1.54s-3.4-30.47 10.2-40.79z"/><path class="c" d="M46.54 156.68s2.23 42.51 23 62c0 0 20.91-24.11 23.2-63.49 0 0-6.69.68-7.94-2.31 0 0-13.82 10.6-29.68.61.01 0-3.45 1.39-8.58 3.19z"/><path d="M69.75 160l-8.65 7.08 6.25 6.2-4.52 63s5.67 11.6 6.92 11.72 6.56-11.41 6.56-11.41L72.49 173l5.91-5.39z" fill="#f7be00"/><path fill="#069cc4" d="M-42.19 257.84h374.11v50.28H-42.19z"/><path class="g" d="M106.18 200.24l-14.91 61.85s-2.85 3.8 4.44 4.44 50.12.63 50.12.63 3.17 1.27 4.44-1.27 16.49-65.34 16.49-65.34 1-5.7-3.49-5.7-48.53-1.59-48.53-1.59-7.29-1.59-8.56 6.98z"/><path class="h" d="M308.16 138.52l-116.13-.93v89.99H308.1l.06-89.06z"/><path class="i" d="M192.03 137.59l-5.49 1.63.06 84.43 5.43 3.93v-89.99zM287.77 164.64l-62.56.01v43.93h62.56v-43.94z"/><path class="j" d="M287.77 208.58v5.18l-73.4.12 10.84-5.3h62.56zM287.77 164.64l-.08-9.16-73.04.05 10.56 9.12 62.56-.01z"/><path class="h" d="M270.77 185.17v70.47l-27.94-1.15v-69.32h27.94z"/><path class="j" d="M242.83 185.17h9.35v69.32h-9.35z"/><path class="h" d="M222.42 253.16h67.95v9.76h-67.95z"/><path fill="#bbc4be" d="M213.82 155.26l11.39 9.39v43.93L213 214.16l.82-58.9z"/><path class="b" d="M171.06 244.44c-.37-.91-3-2.71-5.13-4a1.15 1.15 0 0 0 .52-.59 15 15 0 0 1 1.23-2.46s-3.07-3.07-4.3-3.07-10.13.61-11.36 2.15-11.06 5.22-6.15 6.14l.55.09c-3.21.89-5.95 2.22-6.07 4.21a3 3 0 0 0 1.35 3c-2 0-4 .48-4.12 1.92-.31 3.07 9.52 2.45 9.52 2.45s-6.45 2.46-4 4 13.52 0 13.52 0-6.76 1.22-6.15 4.3 3.38 4.3 8.91 1.84 6.76-4.92 6.76-4.92 1.84-2.45 1.84-4V254l1.54-3.37-.93-3.38s3.09-1.25 2.47-2.81z"/><path class="g" d="M23.71 110.36a4.29 4.29 0 0 1 2.88-5.08l3.32-1a3.86 3.86 0 0 1 4.87 2.72l7.94 30.64a4.3 4.3 0 0 1-2.84 5.11l-3.65 1.14a3.76 3.76 0 0 1-4.82-2.7z"/><path class="b" d="M44.56 140.33c-.13-1.27-9.84-2.29-9.84-2.29l5.35.22s2.22.35 1.52-1.42c-.63-1.57-7-3.2-8.43-3.55 1.2.28 5.62 1.27 5.84.61s-1-1.6-3.28-3a4.63 4.63 0 0 0-1.09-.47 8.88 8.88 0 0 0 1.47-.26c2.09-.64 1.23-2.11-2-2.6s-5.58-.77-8-.27-3.73 10.7-3.73 10.7l.18-.18a9.76 9.76 0 0 0-.64 2.78c.29 5.13 8.48 13.49 8.48 13.49l-13.91 59.25L3.93 206s-9.55 20.19 4.32 28.22c17.4 10.07 24.72-6 25.46-10.72.21-1.4 8.86-62.65 8.86-62.65.36-1.68 1.1-5.63.61-8.17-.64-3.31-4.83-11-4.83-11s6.51 1.46 6.21-1.35z"/><path d="M155.27 198.93a1.41 1.41 0 0 1-1.44 1.37l-32-.92a1.41 1.41 0 0 1-1.37-1.45 1.41 1.41 0 0 1 1.45-1.37l32 .92a1.4 1.4 0 0 1 1.36 1.45z" fill="#808184"/><ellipse class="d" cx="85.39" cy="104.38" rx="2.58" ry="5.32"/><ellipse class="d" cx="55.3" cy="104.34" rx="2.58" ry="5.32"/><path class="m" d="M67.46 101.13l-2.34 20.84h8.29l-5.95-1.78v-19.06z"/><path class="b" d="M88.55 142.88h-36a7.42 7.42 0 0 1-7.4-7.4l-3.8-14.1c0-4.07 7.13 4 11.2 4h36c4.07 0 9.22-9.72 9.22-5.65L96 135.48a7.42 7.42 0 0 1-7.45 7.4z"/><path class="m" d="M82.58 143H62.83s1.23 12.74 15.57 12.45l6.73-1.45s-2.99-7.34-2.55-11z"/><path fill="none" stroke="#d3905e" stroke-miterlimit="10" stroke-width="2.21" d="M56.25 128.4L83 133.09"/></svg>