<svg viewBox="0 0 300 300" xmlns="http://www.w3.org/2000/svg" xmlns:xlink="http://www.w3.org/1999/xlink"><clipPath id="a"><circle cx="151.07" cy="150.82" r="145.13" transform="matrix(.70710678 -.70710678 .70710678 .70710678 -62.4 150.99)"/></clipPath><path d="m-.15-.33h300v301h-300z" fill="#00a7e1"/><circle cx="151.07" cy="150.82" fill="#33b8e6" r="145.13" transform="matrix(.70710678 -.70710678 .70710678 .70710678 -62.4 150.99)"/><g clip-path="url(#a)"><path d="m276.31 196.39c-2-1.79-7.08-6.57-14.59-9.07-10.28-3.42-21.4-4.63-31.39-.45-5.06 2.11-9.13 6.64-10.94 8.48a31.23 31.23 0 0 1 -11.84-24.59c.11-16.14-5-35.78-5-35.82s58.65-13.22 83.5-.69a107.25 107.25 0 0 0 -.76 32.94c2.44 18.41-8.98 29.2-8.98 29.2z"/><path d="m261.72 184.49c-.53 6.82.19 23.55 2 49.83h-35.63c1.25-19.46 2.52-41 2-49.83z" fill="#7c4b29"/><path d="m261.72 184.49c-.19 8.71-.18 15.12.48 25.15-12.42-2.37-23.92-10.56-32.09-20.57v-4.58z" fill="#492b16"/><path d="m286.32 137.22c0 19.38-25.5 59.17-40.42 59.17s-40.41-37.48-40.41-59.17c0-26.31 18.1-47.64 40.41-47.64s40.42 21.33 40.42 47.64z" fill="#7c4b29"/><path d="m309.5 278.13h-127.5s3-44.13 7-49.68c6.92-9.6 29.31-17 40.54-19.57 4.27 9.42 18.53 8.68 16.47 8.68 0 0 13.41-1.31 16.21-8.68 0 0 31.84 9.12 40.39 21 4.03 5.56 6.89 48.25 6.89 48.25z" fill="#33b8e6"/><path d="m309.5 278.13h-63.6l.14-60.57s10.57 0 16.21-8.68c0 0 31.84 9.12 40.39 21 4 5.56 6.86 48.25 6.86 48.25z" fill="#33b8e6"/><path d="m219.27 144.9c.23 7.3-3.82 13.35-9.06 13.52s-9.49-8.76-9.73-16 3.64-10.21 8.88-10.38 9.64 5.56 9.91 12.86z" fill="#7c4b29"/><path d="m272.54 144.9c-.23 7.3 3.82 13.35 9.06 13.52s9.49-8.76 9.73-16-3.65-10.21-8.88-10.38-9.67 5.56-9.91 12.86z" fill="#ffe8b9"/><path d="m286.32 137.22c0 19.38-25.5 59.17-40.42 59.17v-106.81c22.32 0 40.42 21.33 40.42 47.64z" fill="#7c4b29"/><path d="m229.44 112.8s2.56 14.52 21.45 19.2c38.36 9.5 25.42 48 25.42 64.4 0 .88 12.91-10.14 19.54-29.85 4-12 3.59-24.87 2.6-36-2.31-26-29.25-43.13-50.38-44.42-21.88-1.35-46 11.26-53.48 28.6-10 23.19-6.79 61.43 24.8 80.6-3.72-8.52-6.17-13.43-8-37-1.81-23.93 18.05-45.53 18.05-45.53z" fill="#1a1a1a"/><path d="m261.9 199.2c-1.71 3-5.41 5.38-15.74 5.4s-14-2.42-15.74-5.4c-.65-1.12-3.16-1.39-2.87.05 1.3 3.9 1.46 8.67.28 9.63 0 0-.3 10.16 18.33 10.16s18.32-10.16 18.32-10.16c-1.18-1-1-5.73.28-9.63.29-1.44-2.22-1.17-2.86-.05z" fill="#33b8e6"/><g fill="#f7be00"><path d="m223 214.06a2.71 2.71 0 0 1 .17-5.41 2.72 2.72 0 0 1 -.17 5.41z"/><path d="m223 219.46a2.71 2.71 0 0 1 -.05-5.4 2.71 2.71 0 0 1 .05 5.4z"/><path d="m223.31 224.86a2.71 2.71 0 0 1 -.28-5.4 2.72 2.72 0 0 1 .28 5.4z"/><path d="m223.81 230.24a2.71 2.71 0 0 1 -.5-5.38 2.72 2.72 0 0 1 .5 5.38z"/><path d="m224.6 235.59a2.71 2.71 0 0 1 -.79-5.35 2.72 2.72 0 0 1 .79 5.35z"/><path d="m225.72 240.88a2.71 2.71 0 0 1 -1.12-5.29 2.72 2.72 0 0 1 1.12 5.29z"/><path d="m227.29 246.05a2.71 2.71 0 0 1 -1.57-5.17 2.72 2.72 0 0 1 1.57 5.17z"/><path d="m229.42 251a2.71 2.71 0 0 1 -2.13-5 2.72 2.72 0 0 1 2.13 5z"/><path d="m232.29 255.58a2.14 2.14 0 0 1 -1.88.4 2.77 2.77 0 0 1 -1.76-1.29 2.52 2.52 0 0 1 .77-3.67 2.7 2.7 0 0 1 3.43 1 3 3 0 0 1 .39 1.86 2.62 2.62 0 0 1 -.95 1.7z"/><path d="m236.15 259.35a2.19 2.19 0 0 1 -1.74.9 3.19 3.19 0 0 1 -2.07-.88 3.12 3.12 0 0 1 -.89-2 2.18 2.18 0 0 1 .84-1.75 2.73 2.73 0 0 1 3.53.27 2.39 2.39 0 0 1 .78 1.67 2.65 2.65 0 0 1 -.45 1.79z"/><path d="m241 261.77a2.15 2.15 0 0 1 -1.34 1.39 3.08 3.08 0 0 1 -1.11.17 3.29 3.29 0 0 1 -1.17-.36 3.85 3.85 0 0 1 -1-.73 2.45 2.45 0 0 1 -.52-1 2.12 2.12 0 0 1 .32-1.91 2.65 2.65 0 0 1 1.61-1 3.09 3.09 0 0 1 .91 0 2.14 2.14 0 0 1 .89.23 2.7 2.7 0 0 1 .72.58 2.28 2.28 0 0 1 .51.74 2.77 2.77 0 0 1 .18 1.89z"/><path d="m246.28 262.51c.06 1.41-1.3 2.43-3 2.31a3.24 3.24 0 0 1 -2-1.14 2.07 2.07 0 0 1 -.33-1.91 2.7 2.7 0 0 1 1.19-1.48 2.26 2.26 0 0 1 1.77-.38 2.7 2.7 0 0 1 2.37 2.6z"/><path d="m251.62 261.75a2.47 2.47 0 0 1 -2.31 3 2.77 2.77 0 0 1 -2.16-.53 2.17 2.17 0 0 1 -.87-1.71 2.61 2.61 0 0 1 .71-1.79 2.92 2.92 0 0 1 1.65-.87 2.78 2.78 0 0 1 2.98 1.9z"/><path d="m256.49 259.47a2.24 2.24 0 0 1 .27 1.94 3.29 3.29 0 0 1 -1.56 1.67 3.25 3.25 0 0 1 -2.26.12 2.21 2.21 0 0 1 -1.32-1.45 2.54 2.54 0 0 1 .2-1.87 2.66 2.66 0 0 1 3.1-1.45 2.61 2.61 0 0 1 1.57 1.04z"/><path d="m260.42 255.79a2.19 2.19 0 0 1 .82 1.77 3 3 0 0 1 -3.05 2.86 2.17 2.17 0 0 1 -1.7-.95 2.79 2.79 0 0 1 .41-3.49 2.53 2.53 0 0 1 1.7-.72 2.6 2.6 0 0 1 1.82.53z"/><path d="m263.3 251.23a2.18 2.18 0 0 1 1.18 1.52 2.82 2.82 0 0 1 -.4 2.15 2.49 2.49 0 0 1 -3.66.89 2.72 2.72 0 0 1 -.54-3.51 2.79 2.79 0 0 1 1.5-1.17 2.61 2.61 0 0 1 1.92.12z"/><path d="m265.29 246.21a2.53 2.53 0 0 1 1.39 3.46 2.78 2.78 0 0 1 -1.46 1.58 2.23 2.23 0 0 1 -1.92 0 2.51 2.51 0 0 1 -1.26-1.46 2.85 2.85 0 0 1 0-1.93 2.67 2.67 0 0 1 3.25-1.65z"/><path d="m266.65 241a2.55 2.55 0 0 1 1.79 3.25 3 3 0 0 1 -1.23 1.73 2.28 2.28 0 0 1 -1.92.25 2.49 2.49 0 0 1 -1.44-1.26 2.75 2.75 0 0 1 2.8-4z"/><path d="m267.54 235.65a2.71 2.71 0 0 1 -.89 5.33 2.72 2.72 0 0 1 .89-5.33z"/><path d="m268.09 230.27a2.71 2.71 0 0 1 -.55 5.38 2.72 2.72 0 0 1 .55-5.38z"/><path d="m268.38 224.87a2.71 2.71 0 0 1 -.29 5.4 2.72 2.72 0 0 1 .29-5.4z"/><path d="m268.48 219.47a2.71 2.71 0 0 1 -.1 5.4 2.71 2.71 0 0 1 .1-5.4z"/><path d="m268.46 214.06a2.72 2.72 0 1 1 -2.46 2.71 2.59 2.59 0 0 1 2.46-2.71z"/><path d="m268.41 208.65a2.71 2.71 0 1 1 -2.46 2.73 2.61 2.61 0 0 1 2.46-2.73z"/></g><path d="m36 228.72c35.44 0 59.65.11 66.9 0 0 0-3.48-18.39-2.47-35 1.46-24 10.72-48.36 2.44-71.64-.07 0-46.14-13.61-65.7-.71 0 0-11.64 9.29-6.57 27.66 8.15 29.47 5.4 79.69 5.4 79.69z" fill="#23262b"/><path d="m84 172.22c-.55 7 .2 24.25 2.08 51.3h-36.7c1.29-20 2.59-42.17 2.09-51.3z" fill="#ae8457"/><path d="m84 172.22c-.2 9-.19 15.57.49 25.9-12.78-2.45-24.62-10.88-33-21.18v-4.72z" fill="#876546"/><path d="m109.33 123.56c0 19.95-26.25 60.91-41.61 60.91s-41.61-38.59-41.61-60.91c0-27.1 18.64-49.06 41.61-49.06s41.61 21.96 41.61 49.06z" fill="#ae8457"/><path d="m133.2 268.63h-131.32s3.17-45.42 7.29-51.15c7.13-9.88 30.18-17.48 41.74-20.15.15 10 8.48 15 16.81 15 8.33 0 16.67-5 16.81-15 0 0 32.79 9.39 41.59 21.62 4.13 5.73 7.08 49.68 7.08 49.68z" fill="#99dbf3"/><path d="m133.2 268.63h-65.48v-56.27c8.33 0 16.67-5 16.81-15 0 0 32.79 9.39 41.59 21.62 4.13 5.7 7.08 49.65 7.08 49.65z" fill="#99dbf3"/><path d="m40.3 131.46c.24 7.51-3.93 13.75-9.32 13.92s-9.78-9-10-16.53 3.75-10.51 9.14-10.68 9.93 5.83 10.18 13.29z" fill="#7c4b29"/><path d="m95.15 131.46c-.24 7.51 3.93 13.75 9.32 13.92s9.77-9 10-16.53-3.75-10.51-9.14-10.68-9.94 5.83-10.18 13.29z" fill="#ffe8b9"/><path d="m114.5 101.83c-7.49-17.69-24.26-31-46.51-30-22.26-1-40.9 11-48.38 28.67-9.08 21.41-3.35 42.38 5.68 69.49.93 5.35 4.35 14.56 2 44.28-.35 4.38 1.79 9.26 3.79 12.94-12.45 21.52 8.19 17.06 6 32.23 16.83-16.39-.67-24.31-.08-32.68 1.71-1.63 2.12-10.17 2.75-15.84 2.06-18.51.2-25.65-.93-32.41-1.82-10.26-1.66-19.61-5.82-31.18 12.82-2.36 17.28-37.64 17.28-37.64-1.1 4.19 52.13 37.44 53 37.44-3.74 11.89-4.38 21.12-6.08 31.37-1.13 6.76-3 13.9-.94 32.41.64 5.67 1 14.21 2.75 15.84.6 8.37-16.91 16.29-.07 32.68-2.23-15.17 18.41-10.71 6-32.23 2-3.68 4.14-8.56 3.79-12.94-2.38-29.72 1.05-38.93 2-44.28 4.27-24.88 12.84-46.74 3.77-68.15z" fill="#292d33"/><path d="m98.11 224.84c-1.65.58-.9 4.39.6 4.49q3.71.13 7.42.07a3.53 3.53 0 0 0 .15-4.87c-2.63-1.12-6.52-.26-8.17.31z" fill="#ac3c37"/><path d="m29 224.84c-1.65.58-.91 4.39.6 4.49q3.71.13 7.41.07a3.53 3.53 0 0 0 .16-4.87c-2.69-1.12-6.57-.26-8.17.31z" fill="#f7be00"/><path d="m136.24 177.15h44.55v56.85h-44.55z" fill="#f9dfa9"/><path d="m180.79 177.15v26a78.26 78.26 0 0 1 -44.55-24.23v-1.78z" fill="#eace95"/><path d="m209 112.66c0 32.88-22.62 73.93-50.51 73.93s-50.49-41.05-50.49-73.93 22.62-59.53 50.51-59.53 50.49 26.66 50.49 59.53z" fill="#ffe8b9"/><path d="m247.16 311.72-180.93-23s6-55.12 11.64-62.08a29.31 29.31 0 0 1 5.53-5c16.77-12 52.84-19.46 52.84-19.46.19 12.17 11.23 18.26 22.28 18.26s22.09-6.09 22.27-18.26c0 0 46.22 9.62 58.33 24.46 5.66 6.98 8.04 85.08 8.04 85.08z" fill="#007da8"/><path d="m250.76 288.74-91.33 23-.91-91.26c11 0 22.09-6.09 22.27-18.26 0 0 46.22 9.62 58.33 24.46 5.67 6.94 11.64 62.06 11.64 62.06z" fill="#047999"/><path d="m123.32 122.63c0 10.08-5.31 18.25-11.85 18.25s-11.47-12.5-11.47-22.58 5-13.91 11.51-13.91 11.81 8.17 11.81 18.24z" fill="#ffe8b9"/><path d="m193.68 122.63c0 10.08 5.3 18.25 11.85 18.25s11.47-12.5 11.47-22.58-5-13.91-11.5-13.91-11.82 8.17-11.82 18.24z" fill="#f9dfa9"/><path d="m124.72 36.07c-1.82 19.38 65.9-6.36 84.28 24.63 9.15 15.42 4.43 46.52 4.43 46.52a10.51 10.51 0 0 0 -4.84-2.52c-2.44-.3-3.2 19-3.2 19h-2.84s-1.13-9.59-3.67-16.37c0 0-3.9-7-1.26-11.75s-2.64-22-8.09-24.65-9 10.35-29.35 14.86a180.46 180.46 0 0 1 -39.5 3.95s-2.07 6-1.13 7.15-1.41 10.44-1.41 10.44c-2.54 6.78-3.67 16.37-3.67 16.37h-2.84s-.76-19.27-3.2-19a10.51 10.51 0 0 0 -4.84 2.52s-5-27.75 3-43.79a156.2 156.2 0 0 1 18.13-27.36z" fill="#f7be00"/><path d="m150.93 109.77h-25.49a2.49 2.49 0 0 0 -2.5 2.49v10.83a5.66 5.66 0 0 0 5.66 5.66h16.53a8.29 8.29 0 0 0 8.29-8.29v-8.2a2.49 2.49 0 0 0 -2.49-2.49zm-.09 10.69a5.71 5.71 0 0 1 -5.71 5.71h-16.53a3.08 3.08 0 0 1 -3.08-3.08v-10.83l25.41.08z" fill="#2f343b"/><path d="m163.58 112.26v8.2a8.29 8.29 0 0 0 8.28 8.29h16.53a5.65 5.65 0 0 0 5.66-5.66v-10.83a2.48 2.48 0 0 0 -2.49-2.49h-25.49a2.48 2.48 0 0 0 -2.49 2.49zm2.49.08 25.41-.08v10.83a3.09 3.09 0 0 1 -3.09 3.08h-16.53a5.72 5.72 0 0 1 -5.71-5.71z" fill="#2f343b"/><path d="m133.85 151.43a6.92 6.92 0 0 0 6.91 6.91h12.18a5.41 5.41 0 0 0 5.41-5.41v-5.18c-12.25 0-20.17 9-24.5 0z" fill="#c69302"/><path d="m182.84 151.43a6.92 6.92 0 0 1 -6.91 6.91h-12.18a5.4 5.4 0 0 1 -5.4-5.41v-5.18c12.24 0 20.16 9 24.49 0z" fill="#c69302"/></g><ellipse cx="84" cy="137.24" fill="#1a1a1a" rx="2.44" ry="5.03"/><ellipse cx="51.72" cy="137.24" fill="#1a1a1a" rx="2.44" ry="5.03"/><path d="m66.72 138.71-7.5 18.93 11.64 5.36-6.29-7.33z" fill="#492b16"/><path d="m67 123.43 36.02 23.39-12.72-28.59z" fill="#292d33"/><ellipse cx="180.58" cy="119.31" fill="#1a1a1a" rx="3.28" ry="6.78"/><ellipse cx="137.05" cy="119.31" fill="#1a1a1a" rx="3.28" ry="6.78"/><path d="m159.24 119.73 10.11 19.37-15.69 5.49 8.47-7.51z" fill="#ccae79"/><path d="m172.43 161.92h-29.24s13.35 17.39 29.24 0z" fill="#fff"/><ellipse cx="261.63" cy="148.07" fill="#1a1a1a" rx="2.44" ry="5.03"/><ellipse cx="229.35" cy="148.07" fill="#1a1a1a" rx="2.44" ry="5.03"/><path d="m246.4 150.89 7.5 14.5-11.64 4.11 6.29-5.62z" fill="#492b16"/><path d="m235.25 177.44s9.34 6.63 23.95 0" fill="none" stroke="#492b16" stroke-linecap="round" stroke-miterlimit="10" stroke-width="1.33"/><path d="m58.71 165.08h20.57s-5.05 11.07-20.57 0z" fill="#fff"/><path d="m152.57 115.34h12.46v2.17h-12.46z" fill="#2f343b"/></svg>