<svg xmlns="http://www.w3.org/2000/svg" viewBox="0 0 300 300"><defs><style>.a{fill:#33b8e6}.b{fill:#00a7e1}.e{fill:#f9dfa9}.f{fill:#eace95}.g{fill:#ffe8b9}.i{fill:#f3f3f3}.l{fill:#005370}.m{fill:#f7f9f9}.n{fill:#6a330d}.o{fill:#1a1a1a}.p{fill:#7c4b29}.q{fill:#492b16}.t{fill:#14937b}.u{fill:#cea967}.v{fill:#fff}</style><clipPath id="a"><circle class="a" cx="147.32" cy="150.3" r="144.05" transform="rotate(-45 147.316 150.3)"/></clipPath></defs><path class="b" d="M0 0h300v300H0z"/><circle class="a" cx="147.32" cy="150.3" r="144.05" transform="rotate(-45 147.316 150.3)"/><g clip-path="url(#a)"><path d="M202.9 229.7c10.69-1.92 17.2-6.81 24.28-9.17 9.68-3.21 19.25-3.64 28.85-.2 10.91 3.9 20.71 11.43 36.83 9.26 0 0-13.36-7-13.46-22.22s3.62-75.16 3.54-75.2-55.23-12.45-78.64-.65a101 101 0 0 1 .72 31c-2.25 17.36-2.12 67.18-2.12 67.18z" fill="#af8204"/><path class="e" d="M256.94 178.83c-.5 6.42.19 22.18 1.91 46.93h-33.57c1.17-18.33 2.37-38.58 1.9-46.93z"/><path class="f" d="M256.94 178.83c-.17 8.2-.16 14.24.46 23.69-11.7-2.24-22.53-10-30.22-19.38v-4.31z"/><path class="g" d="M280.11 134.32c0 18.25-24 55.71-38.06 55.71S204 154.74 204 134.32c0-24.78 17-44.87 38.06-44.87s38.05 20.09 38.05 44.87z"/><path d="M257.39 196.41v67.34h-30.66v-67.34c0 5.44 7.83 8 15.56 7.91 7.57-.09 15.07-2.79 15.1-7.91z" fill="#e6e6e6"/><path class="a" d="M301.94 267H181.82s2.91-41.55 6.67-46.79c6.52-9 27.6-16 38.18-18.43.14 9.16 7.75 31.07 15.37 31.07 7.61 0 15.25-21.9 15.38-31.07 0 0 30 8.6 38 19.78 3.82 5.25 6.52 45.44 6.52 45.44z"/><path class="a" d="M301.94 267h-59.89v-34.14c7.61 0 15.25-21.9 15.38-31.07 0 0 30 8.6 38 19.78 3.81 5.24 6.51 45.43 6.51 45.43z"/><path class="i" d="M226.73 196.41c3.61 5.39 6.15 7.68 15.32 7.92-3.52 2.65-5 5.59-5.55 13-.87-.27-11.77-6.53-11.73-12.34a20.71 20.71 0 0 1 1.96-8.58zM257.37 196.41c-3.62 5.39-6.15 7.68-15.32 7.92 3.51 2.65 4.94 5.59 5.54 13 .87-.27 11.77-6.53 11.73-12.34a20.62 20.62 0 0 0-1.95-8.58z"/><path class="g" d="M217 141.55c.23 6.87-3.59 12.57-8.52 12.73s-8.94-8.25-9.16-15.12 3.43-9.61 8.36-9.77 9.06 5.29 9.32 12.16zM267.14 141.55c-.23 6.87 3.59 12.57 8.52 12.73s8.94-8.25 9.16-15.12-3.43-9.61-8.36-9.77-9.1 5.29-9.32 12.16z"/><path d="M257.66 111.32s-6 13.39-24.25 20.61a82.26 82.26 0 0 1-16.41 4.49c-7.91 11.94 0 86 4.09 101.07-7.43 0-22.72-9.25-26.66-16.32 1.73-4.56 3.46-36 0-54-2.53-13.11-3.63-33-1.38-43.26 5.63-25.71 27.2-36.46 47.1-37.68C260.72 85 280.93 97 287.86 113.36c8.3 19.59 3.71 40.27 1.69 53.46-2.24 14.69-2.24 49.79-.15 56.11-4.57 8.25-16.51 12.79-25.63 14.56-1.72-14.69 3.91-55.29 6.81-82.3 2.42-22.44-12.92-43.87-12.92-43.87z" fill="#f7be00"/><path class="e" d="M46.22 168.61h30.02v38.31H46.22z"/><path class="f" d="M76.24 168.61v17.53a52.81 52.81 0 0 1-30-16.33v-1.2z"/><path class="g" d="M95.26 125.16c0 22.16-15.25 49.82-34 49.82s-34-27.66-34-49.82S42.43 85 61.22 85s34.04 18 34.04 40.16z"/><path class="g" d="M37.52 131.88c0 6.79-3.58 12.29-8 12.29s-7.75-8.42-7.75-15.21 3.34-9.38 7.75-9.38 8 5.51 8 12.3z"/><path class="e" d="M84.92 131.88c0 6.79 3.58 12.29 8 12.29s7.75-8.42 7.75-15.21-3.34-9.38-7.75-9.38-8 5.51-8 12.3z"/><path d="M61.24 75.89c14.33 0 29.34 8.2 34.27 18.06 5.41 10.81 2.73 27.61 2.73 27.61a7.12 7.12 0 0 0-3.26-1.7c-1.65-.2-2.16 12.78-2.16 12.78H90.9a57 57 0 0 0-2.47-11s-3-4.22-1.13-7.33c5.49-9-17.35-9.11-26.1-9.11s-31.58-1.58-26.2 9.38c1.33 2.72-.95 7-.95 7a57 57 0 0 0-2.47 11h-1.94s-.51-13-2.16-12.78a7.05 7.05 0 0 0-3.26 1.7S22 104.76 27.41 94c4.94-9.91 19.49-18.11 33.83-18.11z" fill="#572700"/><path class="i" d="M114.75 294.35L-1 243.81s4-37.15 7.84-41.83c8.16-10 39.33-16.49 39.33-16.49 7.55 2.08 7.55 2.08 15 2.08s7.44 0 15-2.08c0 0 31.15 6.48 39.31 16.49 3.87 4.68-.73 92.37-.73 92.37z"/><path class="i" d="M123.37 243.81l-62.73 8 .56-64.2c7.44 0 8.1.19 15-2.08 0 0 31.15 6.48 39.31 16.49 3.84 4.64 7.86 41.79 7.86 41.79z"/><path class="l" d="M59.36 199.1l-8.57 78.76 22.06-1.81-9.48-76.95h-4.01zM61.26 187H72.5l-9.13 12.1h-4L49.9 187z"/><path class="m" d="M46.21 179.27c3.93 5.17 6.8 7.43 15 7.65l-11.08 13L45 187.63zM76.22 179.27c-3.93 5.17-6.82 7.43-15 7.65l11.09 13 5.1-12.3z"/><path class="n" d="M61.2 151c-4.65 0-9.11.86-11.3 3.33s-1.53 11.12-1.53 11.12l3-1.42s.29-5 1.05-6.37 8.74-1.24 8.74-1.24zM61.2 151c4.65 0 9.11.86 11.3 3.33s1.5 11.11 1.5 11.11L71 164s-.29-5-1-6.37-8.74-1.24-8.74-1.24z"/><path class="l" d="M57.82 126.1a1.27 1.27 0 0 0-1-.52H40.67a1.26 1.26 0 0 0-1.27 1.26v8a2 2 0 0 0 2 2h11.1a3.19 3.19 0 0 0 3-2.2l2.5-7.4a1.25 1.25 0 0 0-.18-1.14zm-3.71 8.08a1.68 1.68 0 0 1-1.59 1.16h-11.1a.5.5 0 0 1-.5-.5v-7.74h15.52zM64.45 127.24l2.44 7.42a3.19 3.19 0 0 0 3 2.2H81a2 2 0 0 0 2-2v-8a1.26 1.26 0 0 0-1.27-1.26H65.65a1.27 1.27 0 0 0-1 .52 1.28 1.28 0 0 0-.2 1.12zm1.55-.14h15.52v7.74a.49.49 0 0 1-.49.5H69.92a1.68 1.68 0 0 1-1.59-1.16z"/><path class="o" d="M94.88 144.52c12.52 19.52-8 30.45-22.34 48.7-12 15.23-13.22 43.07 5 49.78 44.5 16.41 87.89 23.2 137.62-.57 16.15-7.73 14.59-36.62-1.14-51.74-14.49-13.92-25.33-30.51-12.32-48.3-30.07-27.17-106.82 2.13-106.82 2.13z"/><path class="p" d="M168.18 181.16c-.71 9 .26 31.1 2.67 65.79h-47.07c1.64-25.69 3.32-54.09 2.67-65.79z"/><path class="q" d="M168.18 181.16c-.25 11.5-.23 20 .64 33.21-16.4-3.13-31.59-14-42.37-27.16v-6.05z"/><path class="p" d="M200.66 118.75c0 25.59-33.67 78.12-53.36 78.12s-53.37-49.49-53.37-78.12c0-34.75 23.9-62.91 53.37-62.91s53.36 28.16 53.36 62.91z"/><path d="M168.82 253.36h-43v-47.55c0 15.11 42.92 14.52 43 0z" fill="#e5ebec"/><path class="b" d="M231.53 304.8H63.1s4.08-58.25 9.35-65.6c9.15-12.67 38.71-22.48 53.54-25.84 5.64 12.44 24.46 11.47 21.73 11.47 0 0 17.72-1.73 21.41-11.47 0 0 42.05 12 53.33 27.73 5.28 7.34 9.07 63.71 9.07 63.71z"/><path class="b" d="M231.53 304.8h-84l.17-80s14 0 21.41-11.47c0 0 42.05 12 53.33 27.73 5.3 7.37 9.09 63.74 9.09 63.74z"/><path d="M168 190.5c0 3.24.39 15.31.39 15.31-4.29 7.55-9.43 11.11-21.11 11.11-12.86 0-17.42-3.56-21.18-11.11 0 0 .46-12.07.46-15.31-14.43 0-23.32 15.6-23.32 27.3 0 35.56 8.43 72.12 44.38 72.12 34.79 0 43.71-36.56 43.71-72.12.01-11.7-8.88-27.3-23.33-27.3z" fill="#007da8"/><path class="t" d="M126.42 197.07l-.31-.59.22-6h.24c0 1.28-.07 3.88-.15 6.59zM168.13 197c-.06-2.67-.12-5.21-.12-6.46h.2c.11 3.23.2 6 .2 6z"/><path class="l" d="M191.33 217.8c0 35.57-8.9 72.12-43.69 72.12-36 0-44.39-36.55-44.39-72.12a23.18 23.18 0 0 1 .11-2.34c1.11 33.2 10.68 65.12 44.28 65.12 32.51 0 42.41-31.92 43.58-65.13a23.37 23.37 0 0 1 .11 2.35z"/><path class="p" d="M112.12 128.88c.31 9.64-5 17.63-12 17.86s-12.54-11.57-12.85-21.2 4.81-13.48 11.72-13.7 12.82 7.41 13.13 17.04zM182.47 128.88c-.31 9.64 5 17.63 11.95 17.86s12.54-11.57 12.85-21.2-4.81-13.48-11.72-13.7-12.77 7.41-13.08 17.04z"/><path class="p" d="M200.66 118.75c0 25.59-33.67 78.12-53.36 78.12v-141c29.47-.03 53.36 28.13 53.36 62.88z"/><path class="o" d="M146.15 46.44c-25.18 0-60.08 19.94-58.37 58.37.18 4.09.57 7 1.27 12.22 2.24-2.64 3.09-3.26 5-4.26 4.93-.93 6.32 3.4 5.61 6.06a9.9 9.9 0 0 0 3.52 0c21.52-2.48 36.26-14.11 44.05-32.81 3.51 18 18.7 29.37 45.36 32.35a10.35 10.35 0 0 0 2.21.19c-1-2.19 1.56-6.22 3.75-6.22 3.35 0 4.78 1.89 6.75 4.49 0 0 1.54-2.9 1.92-9.88 2.3-41.25-30.17-60.51-61.07-60.51z"/></g><ellipse class="o" cx="47.69" cy="131.22" rx="1.88" ry="4.12"/><ellipse class="o" cx="75.64" cy="131.22" rx="1.88" ry="4.12"/><ellipse class="o" cx="228.29" cy="146.27" rx="1.88" ry="4.12"/><ellipse class="o" cx="256.24" cy="146.27" rx="1.88" ry="4.12"/><path class="u" d="M243.88 146.27l10.48 14.77-12.31 7.17 7.92-8.6-6.09-13.34zM61.87 147.85l-7.46-4.1 5.1-13.57-1.34 12.63 3.7 5.04z"/><path class="v" d="M54.68 159.75h15.05s-6.32 4.71-15.05 0z"/><path d="M134.81 170.84c-.9 1.17 18.37 4.18 28.59-.54-6.99 9.53-19.21 13.35-28.59.54z" fill="#51220a"/><ellipse class="o" cx="167" cy="127.38" rx="3.26" ry="6.73"/><ellipse class="o" cx="127.06" cy="128.11" rx="3.26" ry="6.73"/><path class="q" d="M140.83 120.92l-3.5 35.69h14.17l-10.67-3.11v-32.58z"/><path class="v" d="M230.17 173.4c-.81-.56 20.51 5.92 26.07 1.26 0 0-12.19 8.42-26.07-1.26z"/></svg>